<?xml version="1.0" standalone="no"?>
<!DOCTYPE svg PUBLIC "-//W3C//DTD SVG 20010904//EN"
 "http://www.w3.org/TR/2001/REC-SVG-20010904/DTD/svg10.dtd">
<svg version="1.0" xmlns="http://www.w3.org/2000/svg"
 width="120.000000pt" height="120.000000pt" viewBox="0 0 120.000000 120.000000"
 preserveAspectRatio="xMidYMid meet">

<g transform="translate(0.000000,160.000000) scale(0.100000,-0.100000)"
fill="#000000" stroke="none">
<path d="M1005 1145 c-171 -168 -226 -216 -252 -221 -46 -9 -81 -47 -88 -99
-7 -42 -8 -43 -52 -49 -25 -3 -70 -6 -99 -6 -30 0 -71 -7 -91 -14 -21 -8 -58
-20 -83 -26 -61 -16 -210 -111 -237 -153 -31 -45 -31 -106 0 -135 13 -12 31
-22 40 -22 13 0 17 -9 17 -39 0 -46 8 -71 22 -71 10 0 5 47 -8 93 -5 16 0 18
52 15 l57 -3 11 -39 c6 -22 17 -41 25 -44 9 -3 11 2 8 14 -24 80 -23 80 74 91
l58 6 47 -49 c27 -27 49 -43 52 -36 2 6 -13 28 -32 48 -20 21 -36 40 -36 43 0
4 24 14 53 23 l52 17 52 -52 c36 -35 56 -48 63 -41 7 7 -5 24 -40 53 -28 23
-48 46 -45 50 2 5 25 14 50 21 25 7 45 19 45 26 0 19 -7 18 -81 -12 -148 -61
-247 -82 -414 -89 -75 -3 -89 -1 -106 16 -44 44 -10 109 95 178 91 59 243 111
325 111 31 0 70 4 88 9 30 9 31 8 38 -27 10 -57 43 -124 77 -160 39 -40 90
-44 133 -10 20 15 45 23 84 25 31 1 75 8 98 14 23 6 58 8 77 5 38 -7 135 7
201 30 22 8 63 16 90 19 96 11 115 16 115 29 0 8 -16 49 -36 92 -20 44 -70
158 -111 254 -87 202 -150 330 -162 330 -4 0 -106 -97 -226 -215z m251 133
c23 -45 254 -575 254 -583 0 -1 -24 -5 -54 -9 -29 -3 -84 -15 -122 -27 -39
-12 -119 -25 -184 -30 -63 -5 -134 -12 -158 -15 -58 -8 -69 4 -74 84 -2 48
-11 82 -31 119 -15 29 -27 61 -27 71 0 47 177 152 257 152 81 0 145 -72 145
-161 -1 -76 -20 -99 -84 -99 -37 0 -63 7 -95 25 -47 28 -59 19 -17 -14 28 -22
38 -26 99 -36 l39 -7 -66 -29 c-41 -18 -92 -31 -137 -35 -100 -10 -92 -28 8
-21 66 4 93 12 158 44 87 43 112 77 121 163 4 39 -1 58 -24 100 -33 62 -81 90
-150 90 -62 0 -200 -67 -248 -121 -29 -32 -37 -35 -47 -23 -10 12 5 31 88 112
139 136 315 302 319 302 2 0 15 -23 30 -52z m-443 -392 c57 -53 100 -183 83
-251 -9 -34 -53 -75 -81 -75 -55 0 -115 91 -130 197 -16 118 58 194 128 129z"/>
<path d="M1094 956 c-4 -10 -2 -22 4 -28 8 -8 13 -7 18 6 4 10 2 22 -4 28 -8
8 -13 7 -18 -6z"/>
<path d="M729 843 c-12 -31 -6 -85 17 -156 22 -67 65 -86 105 -46 18 18 20 28
14 67 -7 52 -57 147 -81 156 -30 12 -45 6 -55 -21z m87 -68 c27 -57 31 -107 9
-125 -18 -15 -31 -7 -50 31 -39 75 -38 190 2 157 9 -7 27 -35 39 -63z"/>
</g>
</svg>
